<?xml version="1.0" encoding="UTF-8" standalone="no"?>
<svg
   xmlns:dc="http://purl.org/dc/elements/1.1/"
   xmlns:cc="http://creativecommons.org/ns#"
   xmlns:rdf="http://www.w3.org/1999/02/22-rdf-syntax-ns#"
   xmlns:svg="http://www.w3.org/2000/svg"
   xmlns="http://www.w3.org/2000/svg"
   xmlns:sodipodi="http://sodipodi.sourceforge.net/DTD/sodipodi-0.dtd"
   xmlns:inkscape="http://www.inkscape.org/namespaces/inkscape"
   width="52.061947mm"
   height="20.430998mm"
   viewBox="0 0 52.061947 20.430998"
   version="1.1"
   id="svg8"
   inkscape:version="1.0.1 (3bc2e813f5, 2020-09-07)"
   sodipodi:docname="AGS.svg">
  <defs
     id="defs2">
    <rect
       x="38.087467"
       y="94.601532"
       width="122.31142"
       height="99.103561"
       id="rect856" />
    <rect
       x="51.830494"
       y="143.49985"
       width="52.074203"
       height="26.838503"
       id="rect18" />
    <rect
       x="31.050524"
       y="37.247402"
       width="78.906448"
       height="28.064871"
       id="rect12" />
  </defs>
  <sodipodi:namedview
     id="base"
     pagecolor="#ffffff"
     bordercolor="#666666"
     borderopacity="1.0"
     inkscape:pageopacity="0.0"
     inkscape:pageshadow="2"
     inkscape:zoom="1.979899"
     inkscape:cx="88.928155"
     inkscape:cy="40.969505"
     inkscape:document-units="mm"
     inkscape:current-layer="layer1"
     inkscape:document-rotation="0"
     showgrid="false"
     fit-margin-top="0"
     fit-margin-left="0"
     fit-margin-right="0"
     fit-margin-bottom="0"
     inkscape:window-width="1366"
     inkscape:window-height="706"
     inkscape:window-x="0"
     inkscape:window-y="36"
     inkscape:window-maximized="1" />
  <metadata
     id="metadata5">
    <rdf:RDF>
      <cc:Work
         rdf:about="">
        <dc:format>image/svg+xml</dc:format>
        <dc:type
           rdf:resource="http://purl.org/dc/dcmitype/StillImage" />
        <dc:title></dc:title>
      </cc:Work>
    </rdf:RDF>
  </metadata>
  <g
     inkscape:label="Layer 1"
     inkscape:groupmode="layer"
     id="layer1"
     transform="translate(-37.96566,-96.946362)">
    <text
       xml:space="preserve"
       id="text16"
       style="font-style:normal;font-variant:normal;font-weight:normal;font-stretch:normal;font-size:22.5778px;line-height:1.25;font-family:'DejaVu Math TeX Gyre';-inkscape-font-specification:'DejaVu Math TeX Gyre';white-space:pre;shape-inside:url(#rect18);fill:#000000;fill-opacity:1;stroke:none;"
       transform="translate(26.261594,-17.491757)" />
    <g
       aria-label="AGS"
       id="text854"
       style="font-style:normal;font-variant:normal;font-weight:600;font-stretch:normal;font-size:25.4px;line-height:1.25;font-family:'URW Gothic';-inkscape-font-specification:'URW Gothic Semi-Bold';white-space:pre;shape-inside:url(#rect856);fill:#000000;fill-opacity:1;stroke:none">
      <path
         d="m 38.265691,116.54716 h 3.8354 l 2.0828,-4.8514 h 6.680199 l 2.0066,4.8514 h 3.8354 l -7.874,-18.770598 h -2.743199 z m 7.1882,-8.1788 2.006599,-5.6896 2.0066,5.6896 z"
         style="font-style:normal;font-variant:normal;font-weight:600;font-stretch:normal;font-size:25.4px;font-family:'URW Gothic';-inkscape-font-specification:'URW Gothic Semi-Bold';stroke:#2196f3;stroke-width:0.4;stroke-miterlimit:4;stroke-dasharray:none;stroke-opacity:1;fill:#212121;fill-opacity:1"
         id="path860" />
      <path
         d="m 64.376861,110.22256 h 7.7724 c -0.9906,2.0828 -3.0226,3.302 -5.5118,3.302 -3.683,0 -6.5024,-2.7432 -6.5024,-6.35 0,-1.6256 0.6858,-3.4036 1.7526,-4.5466 1.0922,-1.1684 2.7432,-1.8288 4.5466,-1.8288 2.1844,0 4.0132,0.889 5.1562,2.4892 h 4.089399 c -1.219199,-3.378198 -5.079999,-5.841998 -9.169399,-5.841998 -5.5118,0 -9.8806,4.267198 -9.8806,9.677398 0,5.5118 4.445,9.7536 10.2108,9.7536 2.8448,0 5.2578,-0.9906 7.112,-2.8956 1.727199,-1.8034 2.692399,-4.1402 2.692399,-6.5532 v -0.4572 H 64.376861 Z"
         style="font-style:normal;font-variant:normal;font-weight:600;font-stretch:normal;font-size:25.4px;font-family:'URW Gothic';-inkscape-font-specification:'URW Gothic Semi-Bold';stroke:#2196f3;stroke-opacity:1;fill:#212121;fill-opacity:1"
         id="path862" />
      <path
         d="m 77.661008,111.18776 c 0.127,1.4732 0.4572,2.413 1.2192,3.429 1.1176,1.4224 2.9464,2.2606 4.953,2.2606 3.3782,0 5.9944,-2.6162 5.9944,-6.0198 0,-1.5748 -0.5588,-2.8956 -1.6764,-3.9116 -0.7366,-0.6858 -1.3208,-0.9906 -3.175,-1.7018 -1.778,-0.6604 -1.8288,-0.6858 -2.0828,-0.8382 -0.6858,-0.4318 -1.0414,-1.016 -1.0414,-1.7018 0,-1.1176 0.7874,-1.905 1.9304,-1.905 1.1684,0 1.8796,0.7112 1.9812,1.9812 h 3.6068 c -0.0762,-1.4224 -0.4064,-2.3876 -1.1684,-3.327398 -1.016,-1.27 -2.6416,-2.0066 -4.3942,-2.0066 -3.048,0 -5.461,2.3622 -5.461,5.333998 0,2.3622 1.3716,4.1656 3.9116,5.1054 2.5146,0.9398 2.6924,1.016 3.2512,1.4478 0.5588,0.4572 0.8636,1.1176 0.8636,1.905 0,1.3462 -1.0414,2.286 -2.54,2.286 -1.5494,0 -2.3876,-0.762 -2.54,-2.3368 z"
         style="font-style:normal;font-variant:normal;font-weight:600;font-stretch:normal;font-size:25.4px;font-family:'URW Gothic';-inkscape-font-specification:'URW Gothic Semi-Bold';stroke:#2196f3;stroke-width:0.4;stroke-miterlimit:4;stroke-dasharray:none;stroke-opacity:1;fill:#212121;fill-opacity:1"
         id="path864" />
    </g>
  </g>
</svg>
